<svg width="20" height="19" viewBox="0 0 20 19" fill="none" xmlns="http://www.w3.org/2000/svg">
<path fill-rule="evenodd" clip-rule="evenodd" d="M3.5 1C2.11929 1 1 2.11929 1 3.5V5.5C1 6.88071 2.11929 8 3.5 8H7.5C8.88071 8 10 6.88071 10 5.5V3.5C10 2.11929 8.88071 1 7.5 1H3.5ZM3.5 11C2.11929 11 1 12.1193 1 13.5V15.5C1 16.8807 2.11929 18 3.5 18H5.5C6.88071 18 8 16.8807 8 15.5V13.5C8 12.1193 6.88071 11 5.5 11H3.5ZM10 13.5C10 12.1193 11.1193 11 12.5 11H16.5C17.8807 11 19 12.1193 19 13.5V15.5C19 16.8807 17.8807 18 16.5 18H12.5C11.1193 18 10 16.8807 10 15.5V13.5ZM14.5 1C13.1193 1 12 2.11929 12 3.5V5.5C12 6.88071 13.1193 8 14.5 8H16.5C17.8807 8 19 6.88071 19 5.5V3.5C19 2.11929 17.8807 1 16.5 1H14.5Z" fill="#646379"/>
<path d="M1.5 3.5C1.5 2.39543 2.39543 1.5 3.5 1.5V0.5C1.84315 0.5 0.5 1.84315 0.5 3.5H1.5ZM1.5 5.5V3.5H0.5V5.5H1.5ZM3.5 7.5C2.39543 7.5 1.5 6.60457 1.5 5.5H0.5C0.5 7.15685 1.84315 8.5 3.5 8.5V7.5ZM7.5 7.5H3.5V8.5H7.5V7.5ZM9.5 5.5C9.5 6.60457 8.60457 7.5 7.5 7.5V8.5C9.15685 8.5 10.5 7.15685 10.5 5.5H9.5ZM9.5 3.5V5.5H10.5V3.5H9.5ZM7.5 1.5C8.60457 1.5 9.5 2.39543 9.5 3.5H10.5C10.5 1.84315 9.15685 0.5 7.5 0.5V1.5ZM3.5 1.5H7.5V0.5H3.5V1.5ZM1.5 13.5C1.5 12.3954 2.39543 11.5 3.5 11.5V10.5C1.84315 10.5 0.5 11.8431 0.5 13.5H1.5ZM1.5 15.5V13.5H0.5V15.5H1.5ZM3.5 17.5C2.39543 17.5 1.5 16.6046 1.5 15.5H0.5C0.5 17.1569 1.84315 18.5 3.5 18.5V17.5ZM5.5 17.5H3.5V18.5H5.5V17.5ZM7.5 15.5C7.5 16.6046 6.60457 17.5 5.5 17.5V18.5C7.15685 18.5 8.5 17.1569 8.5 15.5H7.5ZM7.5 13.5V15.5H8.5V13.5H7.5ZM5.5 11.5C6.60457 11.5 7.5 12.3954 7.5 13.5H8.5C8.5 11.8431 7.15685 10.5 5.5 10.5V11.5ZM3.5 11.5H5.5V10.5H3.5V11.5ZM12.5 10.5C10.8431 10.5 9.5 11.8431 9.5 13.5H10.5C10.5 12.3954 11.3954 11.5 12.5 11.5V10.5ZM16.5 10.5H12.5V11.5H16.5V10.5ZM19.5 13.5C19.5 11.8431 18.1569 10.5 16.5 10.5V11.5C17.6046 11.5 18.5 12.3954 18.5 13.5H19.5ZM19.5 15.5V13.5H18.5V15.5H19.5ZM16.5 18.5C18.1569 18.5 19.5 17.1569 19.5 15.5H18.5C18.5 16.6046 17.6046 17.5 16.5 17.5V18.5ZM12.5 18.5H16.5V17.5H12.5V18.5ZM9.5 15.5C9.5 17.1569 10.8431 18.5 12.5 18.5V17.5C11.3954 17.5 10.5 16.6046 10.5 15.5H9.5ZM9.5 13.5V15.5H10.5V13.5H9.5ZM12.5 3.5C12.5 2.39543 13.3954 1.5 14.5 1.5V0.5C12.8431 0.5 11.5 1.84315 11.5 3.5H12.5ZM12.5 5.5V3.5H11.5V5.5H12.5ZM14.5 7.5C13.3954 7.5 12.5 6.60457 12.5 5.5H11.5C11.5 7.15685 12.8431 8.5 14.5 8.5V7.5ZM16.5 7.5H14.5V8.5H16.5V7.5ZM18.5 5.5C18.5 6.60457 17.6046 7.5 16.5 7.5V8.5C18.1569 8.5 19.5 7.15685 19.5 5.5H18.5ZM18.5 3.5V5.5H19.5V3.5H18.5ZM16.5 1.5C17.6046 1.5 18.5 2.39543 18.5 3.5H19.5C19.5 1.84315 18.1569 0.5 16.5 0.5V1.5ZM14.5 1.5H16.5V0.5H14.5V1.5Z" fill="black"/>
</svg>
